<?xml version="1.0" standalone="no"?>
<!DOCTYPE svg PUBLIC "-//W3C//DTD SVG 20010904//EN"
 "http://www.w3.org/TR/2001/REC-SVG-20010904/DTD/svg10.dtd">
<svg version="1.0" xmlns="http://www.w3.org/2000/svg"
 width="260.000000pt" height="260.000000pt" viewBox="0 0 260.000000 260.000000"
 preserveAspectRatio="xMidYMid meet">
<metadata>
Created by potrace 1.11, written by Peter Selinger 2001-2013
</metadata>
<g transform="translate(0.000000,260.000000) scale(0.100000,-0.100000)"
fill="#000000" stroke="none">
<path d="M136 2519 c-28 -84 -70 -173 -113 -242 -14 -23 -23 -49 -21 -65 3
-26 4 -26 24 13 23 42 137 314 149 353 3 12 2 22 -3 22 -5 0 -21 -37 -36 -81z"/>
<path d="M691 2584 c0 -11 3 -14 6 -6 3 7 2 16 -1 19 -3 4 -6 -2 -5 -13z"/>
<path d="M930 2580 c-15 -29 -42 -121 -37 -126 2 -2 16 28 31 68 25 70 29 101
6 58z"/>
<path d="M1386 2518 c-16 -226 -22 -386 -15 -413 l7 -30 2 30 c1 17 1 58 0 93
-1 38 3 62 9 62 6 0 12 -10 13 -22 1 -13 4 28 7 91 l6 115 26 -40 c15 -21 57
-70 94 -109 64 -68 74 -71 31 -10 -32 44 -78 138 -116 233 -18 45 -38 82 -45
82 -9 0 -15 -25 -19 -82z"/>
<path d="M2103 2568 c4 -18 11 -132 17 -253 11 -212 18 -282 19 -202 1 42 0
41 58 24 35 -10 49 -22 77 -67 19 -30 32 -58 30 -62 -3 -5 -1 -8 5 -8 6 0 15
-8 20 -17 8 -17 2 -18 -85 -16 -51 1 -103 7 -114 13 -18 9 -19 8 -11 -12 12
-33 -23 -62 -66 -55 -18 3 -33 2 -33 -3 0 -5 -10 -12 -22 -16 -13 -4 -46 -17
-75 -30 -68 -31 -73 -30 -37 7 34 37 86 61 109 52 10 -3 21 0 25 7 4 7 26 13
49 14 22 0 41 2 41 4 0 2 -11 18 -24 35 -39 51 -103 187 -116 246 -7 30 -13
107 -13 170 0 93 -2 108 -9 76 -5 -22 -21 -87 -34 -143 -28 -115 -28 -144 1
-54 l18 57 24 -98 c16 -62 39 -124 64 -166 21 -38 39 -71 39 -74 0 -3 -15 -8
-32 -10 -29 -3 -27 -4 10 -5 68 -3 48 -32 -21 -32 -24 1 -43 12 -77 45 -25 25
-49 45 -55 45 -5 -1 13 -21 40 -46 56 -50 58 -43 -29 -89 -23 -12 -41 -28 -42
-40 -2 -11 -13 -29 -26 -39 l-23 -19 25 7 c56 17 77 18 77 3 0 -27 43 -85 73
-97 49 -20 117 -7 154 29 36 36 21 42 -17 7 -54 -50 -131 -38 -167 27 -13 24
-13 29 0 37 8 5 22 7 30 4 64 -27 93 -34 104 -25 7 6 27 12 45 13 35 3 51 22
51 62 0 24 3 26 49 26 28 0 53 -5 56 -11 4 -5 1 -30 -6 -55 -10 -34 -27 -57
-63 -87 -26 -23 -54 -45 -61 -49 -23 -14 -140 -20 -178 -10 -20 6 -37 7 -37 2
0 -26 151 -41 205 -20 31 12 98 80 166 169 27 35 49 58 49 51 0 -7 -18 -76
-40 -154 -21 -77 -49 -178 -61 -224 -12 -45 -32 -99 -45 -118 -29 -43 -31 -53
-3 -28 28 25 109 149 109 165 -1 8 -10 -3 -21 -23 -19 -38 -37 -53 -25 -22 3
9 24 87 47 173 45 174 60 221 70 221 4 0 17 -20 29 -44 19 -41 20 -50 10 -108
-27 -150 -184 -400 -241 -383 -9 3 -24 -4 -35 -16 l-19 -22 28 7 c37 9 36 -9
-7 -98 -40 -83 -91 -152 -283 -387 -182 -223 -190 -231 -250 -236 -65 -6 -141
31 -503 248 -137 82 -243 170 -292 244 -58 87 -153 265 -140 265 5 0 35 -9 67
-20 32 -11 60 -19 61 -17 2 2 -26 22 -62 46 -57 38 -126 108 -176 181 -16 24
-17 20 -17 -105 -1 -75 5 -162 14 -206 15 -83 51 -219 60 -227 6 -6 6 1 8 210
1 82 5 148 8 148 10 0 59 -113 75 -170 19 -74 29 -257 15 -292 -14 -38 -31
-28 -66 37 -16 29 -31 52 -33 50 -8 -8 50 -105 68 -115 19 -10 19 -13 5 -46
-8 -19 -30 -54 -50 -78 -42 -51 -46 -65 -9 -31 15 14 30 25 33 25 4 0 30 -52
60 -116 29 -64 86 -185 126 -268 40 -83 78 -168 85 -188 6 -21 18 -38 25 -38
10 0 6 18 -16 65 -16 35 -29 68 -29 72 0 4 20 -20 43 -52 24 -33 51 -66 59
-73 23 -19 347 -19 359 0 20 29 5 62 -36 81 -63 28 -69 32 -76 58 -18 74 77
124 251 132 93 4 139 -6 141 -31 4 -61 -18 -100 -82 -147 -46 -33 -51 -39 -45
-66 4 -19 1 -29 -7 -29 -8 0 -7 -4 3 -10 9 -5 19 -5 27 1 7 6 18 7 24 3 7 -4
41 -8 76 -9 l63 -1 49 75 c28 42 57 93 66 115 9 21 18 36 20 34 5 -5 -21 -126
-39 -175 -8 -24 -11 -43 -7 -43 4 0 25 53 45 118 20 64 57 182 82 262 25 80
49 149 53 153 4 4 22 -16 40 -44 l32 -53 -67 -140 c-37 -78 -84 -174 -105
-214 -22 -41 -39 -78 -39 -83 0 -9 56 -6 66 3 2 2 37 69 79 149 41 79 85 163
97 187 25 46 48 55 49 20 0 -13 3 -17 6 -10 2 6 11 12 19 12 11 0 12 4 2 19
-6 10 -18 17 -25 14 -20 -8 -16 16 20 102 19 44 42 108 52 143 10 34 22 62 27
62 14 0 9 -27 -17 -102 -28 -80 -26 -104 4 -39 l19 43 5 -39 c3 -21 4 -156 2
-301 l-3 -262 24 -1 c13 0 39 -1 57 -2 l32 -1 6 248 c4 136 10 250 13 253 3 4
6 -56 7 -133 1 -278 4 -364 14 -364 14 -1 22 69 30 292 5 126 11 195 18 191
10 -6 3 -314 -10 -437 -4 -38 -2 -57 4 -53 5 3 16 81 23 172 7 91 15 165 18
165 3 0 2 -75 -2 -167 l-7 -168 31 1 c78 3 70 -49 70 442 0 255 -4 451 -10
471 -7 24 -6 39 1 48 13 15 5 351 -10 398 -7 22 -8 6 -4 -55 3 -47 3 -83 1
-80 -9 8 -46 160 -54 218 -4 36 -3 52 5 52 6 0 11 -5 11 -12 0 -6 2 -9 5 -6
13 13 -60 183 -106 245 -52 72 -56 82 -37 101 9 9 6 12 -15 12 -23 0 -35 12
-74 73 -98 153 -133 250 -183 510 -12 59 -37 83 -27 25z m57 -282 c0 -7 13
-40 30 -72 16 -32 27 -60 25 -62 -2 -2 -20 1 -39 8 l-36 12 0 64 c0 36 4 64
10 64 6 0 10 -6 10 -14z m195 -353 c0 -14 -7 -18 -30 -16 -16 1 -63 3 -102 5
-47 2 -73 7 -73 15 0 16 21 19 120 17 75 -2 85 -5 85 -21z m136 -210 c35 -82
20 -184 -46 -318 -34 -67 -35 -68 -31 -30 3 22 7 69 10 105 l6 65 -14 -49
c-17 -57 -35 -82 -30 -39 3 16 -2 9 -11 -17 -8 -25 -15 -52 -15 -60 0 -8 -7
-28 -16 -45 -11 -19 -17 -57 -18 -105 -2 -127 16 -202 64 -262 l21 -28 -21 0
c-35 0 -85 28 -109 61 -12 17 -27 56 -32 87 -28 174 -28 173 -23 77 3 -73 2
-85 -7 -65 -13 27 -15 157 -3 193 l8 22 7 -25 c6 -21 7 -18 8 17 1 33 8 50 36
80 20 21 60 85 90 143 40 78 54 98 55 78 0 -15 5 -30 10 -33 6 -4 10 7 10 24
0 34 22 171 27 171 2 0 13 -21 24 -47z m79 -439 c7 -19 9 -45 6 -58 -7 -28
-98 -76 -144 -76 -36 0 -36 -1 -21 37 6 15 22 68 34 116 14 53 31 94 41 102
17 12 21 8 46 -36 15 -28 32 -66 38 -85z m-200 -43 c-22 -74 -40 -92 -40 -41
0 34 53 150 58 127 2 -9 -6 -48 -18 -86z m-9 -84 c-10 -9 -11 -8 -5 6 3 10 9
15 12 12 3 -3 0 -11 -7 -18z m-169 -69 c-1 -40 -14 -102 -37 -171 -19 -60 -37
-125 -41 -145 -4 -20 -12 -48 -19 -62 -9 -17 -10 -41 -5 -73 4 -26 4 -47 0
-47 -12 0 -50 128 -50 167 0 20 -3 33 -7 29 -4 -3 -6 -26 -4 -49 2 -33 0 -39
-10 -30 -21 21 -24 171 -5 235 16 55 45 96 47 67 0 -8 6 0 12 16 7 17 32 57
56 89 52 70 65 64 63 -26z m16 -160 c-3 -7 -25 -74 -49 -148 -32 -99 -45 -127
-47 -106 -4 31 23 150 46 206 17 41 31 60 44 60 6 0 8 -6 6 -12z m-1314 -154
c8 -3 21 -31 30 -62 15 -51 60 -176 81 -226 7 -17 4 -16 -27 5 -58 40 -136
136 -154 193 -9 28 -21 54 -26 57 -14 9 -23 119 -9 119 6 0 12 -21 13 -52 l2
-53 3 50 c6 81 11 84 44 27 16 -29 36 -55 43 -58z m-158 -41 c3 -16 12 -45 20
-66 8 -21 10 -36 5 -33 -12 8 -51 92 -51 111 0 26 19 16 26 -12z m450 -78 c9
-8 11 -15 6 -15 -5 0 -15 7 -22 15 -7 8 -9 15 -6 15 4 0 14 -7 22 -15z m1174
-260 c0 -162 -4 -255 -10 -255 -5 0 -8 15 -6 33 3 17 5 132 5 255 1 122 3 222
6 222 3 0 5 -115 5 -255z m-695 -154 c-3 -6 -21 -18 -38 -26 l-32 -16 34 30
c33 29 51 35 36 12z m-319 -46 c16 -12 16 -14 3 -15 -9 0 -22 7 -29 15 -16 19
0 19 26 0z"/>
<path d="M2400 1545 c0 -8 2 -15 4 -15 2 0 6 7 10 15 3 8 1 15 -4 15 -6 0 -10
-7 -10 -15z"/>
<path d="M2046 975 c-3 -8 -8 -46 -10 -83 -5 -59 -4 -61 3 -17 5 28 11 65 15
83 8 33 3 44 -8 17z"/>
<path d="M2420 2535 c0 -5 5 -17 10 -25 5 -8 10 -10 10 -5 0 6 -5 17 -10 25
-5 8 -10 11 -10 5z"/>
<path d="M1166 2504 c-20 -51 4 -376 32 -444 10 -23 11 -21 11 19 1 42 2 44
16 25 15 -18 15 -18 6 6 -28 74 -67 361 -54 396 3 8 3 14 0 14 -3 0 -8 -7 -11
-16z"/>
<path d="M651 2480 c-6 -18 -13 -55 -16 -83 -5 -51 -4 -52 6 -12 5 22 14 57
20 78 13 48 5 60 -10 17z"/>
<path d="M2440 2485 c0 -6 13 -53 29 -105 57 -183 105 -397 124 -555 3 -21 4
-16 5 15 3 88 -36 277 -99 483 -17 55 -28 101 -26 103 2 3 32 -32 66 -77 33
-46 61 -78 61 -73 0 14 -26 51 -85 119 -28 33 -57 69 -63 80 -6 11 -12 15 -12
10z"/>
<path d="M267 2461 c-4 -17 -3 -21 5 -13 5 5 8 16 6 23 -3 8 -7 3 -11 -10z"/>
<path d="M1120 2460 c0 -11 -14 -61 -30 -111 -17 -50 -29 -93 -27 -96 3 -2 10
10 16 27 12 37 26 34 29 -7 1 -15 6 -41 11 -58 7 -21 10 13 10 118 1 81 -1
147 -4 147 -3 0 -5 -9 -5 -20z"/>
<path d="M226 2334 c-37 -126 -77 -201 -146 -272 -34 -34 -65 -62 -70 -62 -6
0 -10 -7 -10 -15 0 -21 10 -19 52 10 20 14 39 25 41 25 2 0 -6 -32 -19 -72
-27 -81 -26 -102 1 -31 19 48 94 213 98 213 1 0 1 -65 1 -145 -1 -129 1 -145
15 -141 9 2 28 7 43 10 25 6 27 9 17 33 -15 41 -16 418 -1 477 22 85 4 62 -22
-30z m-17 -281 c-1 -141 -16 -215 -20 -98 -4 127 3 225 16 225 3 0 4 -57 4
-127z"/>
<path d="M1701 2325 c0 -5 11 -30 24 -55 13 -25 24 -40 24 -35 0 6 -11 30 -24
55 -13 25 -24 41 -24 35z"/>
<path d="M1862 2227 c-1 -21 -7 -58 -13 -82 -16 -62 2 -90 20 -31 11 38 18 46
49 55 27 7 30 10 12 9 -46 -1 -52 2 -46 18 3 8 2 12 -3 9 -6 -3 -12 9 -14 27
-4 32 -4 32 -5 -5z"/>
<path d="M804 2184 c-12 -29 -17 -55 -12 -56 10 -4 -20 -98 -37 -115 -7 -6
-18 -45 -25 -87 -12 -74 -14 -76 -41 -76 -16 0 -29 -5 -29 -10 0 -6 3 -9 8 -9
21 4 33 -4 46 -28 l15 -28 1 28 c0 22 5 27 24 27 13 0 27 7 30 16 9 24 7 29
-6 16 -7 -7 -18 -12 -26 -12 -17 0 -12 56 9 105 l13 30 6 -50 5 -50 13 80 c13
85 33 268 29 271 -1 1 -11 -22 -23 -52z"/>
<path d="M1411 2194 c0 -11 3 -14 6 -6 3 7 2 16 -1 19 -3 4 -6 -2 -5 -13z"/>
<path d="M1780 2181 c0 -5 5 -13 10 -16 6 -3 10 -2 10 4 0 5 -4 13 -10 16 -5
3 -10 2 -10 -4z"/>
<path d="M1640 2172 c0 -6 5 -14 11 -18 6 -3 21 -29 34 -56 20 -42 23 -46 27
-25 3 17 -6 35 -34 66 -21 24 -38 39 -38 33z"/>
<path d="M1410 2140 c0 -5 5 -10 11 -10 5 0 7 5 4 10 -3 6 -8 10 -11 10 -2 0
-4 -4 -4 -10z"/>
<path d="M1915 2140 l-30 -8 37 -1 c20 0 40 4 43 9 7 11 -6 11 -50 0z"/>
<path d="M1135 2119 c25 -79 97 -209 115 -209 14 0 -4 33 -34 63 -20 20 -66
122 -66 147 0 5 -5 12 -11 16 -8 4 -9 -1 -4 -17z"/>
<path d="M1440 2125 c0 -13 4 -14 20 -5 11 6 20 13 20 15 0 3 -9 5 -20 5 -11
0 -20 -7 -20 -15z"/>
<path d="M2071 2124 c0 -11 3 -14 6 -6 3 7 2 16 -1 19 -3 4 -6 -2 -5 -13z"/>
<path d="M2080 2084 c0 -10 5 -26 10 -34 8 -11 9 -7 4 15 -8 37 -14 45 -14 19z"/>
<path d="M740 2061 c-6 -12 -7 -21 -1 -21 10 0 24 30 17 37 -2 3 -9 -5 -16
-16z"/>
<path d="M1436 2040 c6 -38 35 -122 40 -117 2 1 -8 36 -21 77 -14 41 -22 59
-19 40z"/>
<path d="M1745 2059 c3 -8 15 -19 28 -24 28 -12 33 -52 15 -108 -8 -25 -11
-58 -7 -82 3 -22 7 -32 8 -22 2 26 41 140 52 152 6 5 13 5 21 -3 9 -9 7 -16
-7 -32 -10 -11 -13 -20 -8 -20 6 0 16 7 23 15 7 8 24 15 39 15 20 0 11 9 -49
45 -41 25 -85 52 -98 61 -17 13 -21 13 -17 3z"/>
<path d="M2101 2014 c0 -11 3 -14 6 -6 3 7 2 16 -1 19 -3 4 -6 -2 -5 -13z"/>
<path d="M2193 2003 c9 -2 25 -2 35 0 9 3 1 5 -18 5 -19 0 -27 -2 -17 -5z"/>
<path d="M2268 2003 c7 -3 16 -2 19 1 4 3 -2 6 -13 5 -11 0 -14 -3 -6 -6z"/>
<path d="M677 1961 c-19 -29 -24 -45 -19 -66 7 -24 10 -20 29 39 12 36 20 66
18 66 -1 0 -14 -18 -28 -39z"/>
<path d="M1305 1930 c3 -5 8 -10 11 -10 2 0 4 5 4 10 0 6 -5 10 -11 10 -5 0
-7 -4 -4 -10z"/>
<path d="M1370 1934 c0 -3 7 -12 15 -20 8 -9 15 -12 15 -9 0 4 12 0 26 -10 26
-16 26 -16 19 7 -4 12 -8 23 -9 24 -6 5 -66 12 -66 8z"/>
<path d="M1720 1908 c0 -36 4 -35 14 5 4 16 2 27 -4 27 -5 0 -10 -14 -10 -32z"/>
<path d="M410 1915 c-14 -8 -20 -14 -15 -14 6 0 21 6 35 14 14 8 21 14 15 14
-5 0 -21 -6 -35 -14z"/>
<path d="M335 1890 c-16 -11 -25 -20 -18 -20 19 0 63 22 63 32 0 13 -13 10
-45 -12z"/>
<path d="M1260 1888 c0 -21 27 -31 48 -18 15 8 15 9 -3 10 -12 0 -26 5 -33 12
-9 9 -12 8 -12 -4z"/>
<path d="M894 1858 c-14 -28 -15 -31 -2 -20 14 11 31 52 22 52 -2 0 -11 -15
-20 -32z"/>
<path d="M1330 1884 c0 -4 10 -17 23 -29 12 -12 39 -43 61 -69 21 -26 40 -45
43 -43 7 7 -21 47 -70 100 -40 44 -57 56 -57 41z"/>
<path d="M1128 1873 c7 -3 16 -2 19 1 4 3 -2 6 -13 5 -11 0 -14 -3 -6 -6z"/>
<path d="M1400 1856 c0 -8 5 -18 10 -21 6 -3 10 1 10 9 0 8 -4 18 -10 21 -5 3
-10 -1 -10 -9z"/>
<path d="M1696 1809 c-9 -34 -15 -63 -13 -66 2 -2 12 24 21 58 10 33 16 63 13
65 -2 2 -11 -24 -21 -57z"/>
<path d="M36 1845 c-3 -9 0 -15 9 -15 9 0 12 6 9 15 -4 8 -7 15 -9 15 -2 0 -5
-7 -9 -15z"/>
<path d="M1438 1843 c7 -3 16 -2 19 1 4 3 -2 6 -13 5 -11 0 -14 -3 -6 -6z"/>
<path d="M108 1833 c7 -3 16 -2 19 1 4 3 -2 6 -13 5 -11 0 -14 -3 -6 -6z"/>
<path d="M1210 1834 c-14 -1 -97 -8 -185 -14 l-161 -12 -32 -58 c-36 -65 -39
-79 -17 -60 13 11 19 9 33 -10 66 -90 170 -143 220 -111 11 7 10 10 -3 15 -9
3 -28 6 -41 6 -60 0 -185 95 -184 140 1 28 26 49 71 59 63 15 69 14 69 -14 0
-36 35 -102 65 -121 38 -25 140 -16 185 16 18 13 28 26 22 28 -7 2 -26 -8 -44
-23 -28 -23 -38 -26 -75 -21 -61 8 -98 30 -113 66 -15 37 -13 40 40 47 32 5
45 1 63 -15 26 -24 61 -15 72 17 4 15 15 21 36 21 24 0 29 -4 29 -25 0 -14 4
-25 9 -25 11 0 21 25 21 55 0 13 6 26 13 28 6 3 3 6 -8 6 -11 1 -29 3 -40 5
-11 2 -31 2 -45 0z"/>
<path d="M1348 1810 c41 -25 54 -25 23 0 -13 11 -31 20 -40 20 -9 0 -3 -8 17
-20z"/>
<path d="M1742 1790 c0 -14 2 -19 5 -12 2 6 2 18 0 25 -3 6 -5 1 -5 -13z"/>
<path d="M477 1783 c-3 -5 -1 -17 4 -28 7 -17 8 -17 8 8 1 27 -4 34 -12 20z"/>
<path d="M1560 1771 c0 -6 4 -13 10 -16 6 -3 7 1 4 9 -7 18 -14 21 -14 7z"/>
<path d="M4 1717 l-2 -52 10 43 c8 37 13 42 36 42 41 0 72 -11 72 -25 0 -7
-11 -37 -25 -67 -32 -69 -32 -98 1 -35 48 93 53 42 7 -82 -13 -35 -22 -65 -20
-68 9 -8 46 85 64 159 10 43 21 78 25 78 4 0 15 -11 24 -25 17 -26 12 -89 -10
-130 -21 -39 -89 -103 -102 -98 -8 3 -16 -2 -20 -10 -3 -8 -16 -18 -29 -21
-28 -7 -37 -27 -19 -44 12 -10 14 -10 14 2 0 9 9 20 19 25 41 22 125 102 148
141 13 22 29 38 34 34 7 -4 8 10 4 40 -9 56 6 61 27 9 15 -38 15 -38 10 35
l-5 72 34 1 c19 0 43 4 54 9 13 6 2 8 -35 5 -139 -12 -173 -12 -203 -5 -18 4
-50 11 -72 14 l-40 5 -1 -52z"/>
<path d="M398 1763 c6 -2 18 -2 25 0 6 3 1 5 -13 5 -14 0 -19 -2 -12 -5z"/>
<path d="M774 1762 c-5 -4 -7 -20 -4 -37 l7 -30 12 29 c12 30 4 51 -15 38z"/>
<path d="M710 1740 c0 -11 4 -20 9 -20 5 0 7 9 4 20 -3 11 -7 20 -9 20 -2 0
-4 -9 -4 -20z"/>
<path d="M1757 1709 c4 -13 8 -18 11 -10 2 7 -1 18 -6 23 -8 8 -9 4 -5 -13z"/>
<path d="M1630 1675 c0 -2 16 -20 35 -39 22 -22 36 -46 36 -63 2 -24 2 -25 6
-5 3 13 9 20 16 16 7 -4 -10 16 -38 45 -48 50 -55 56 -55 46z"/>
<path d="M717 1630 c5 -35 1 -46 -27 -81 -17 -22 -30 -43 -27 -46 3 -3 18 13
34 36 32 46 39 49 48 21 3 -11 10 -20 15 -20 6 0 5 11 -1 27 -6 18 -6 36 0 55
7 19 7 27 0 22 -6 -3 -19 2 -29 11 -18 16 -18 15 -13 -25z"/>
<path d="M1620 1620 c-6 -12 -9 -24 -7 -27 3 -2 11 5 17 17 6 12 9 24 7 27 -3
2 -11 -5 -17 -17z"/>
<path d="M1790 1614 c0 -11 38 -74 45 -74 2 0 -5 17 -17 38 -27 46 -28 48 -28
36z"/>
<path d="M1740 1566 c0 -2 7 -7 16 -10 8 -3 12 -2 9 4 -6 10 -25 14 -25 6z"/>
<path d="M240 1550 c0 -8 5 -22 10 -30 9 -13 10 -13 10 0 0 8 -5 22 -10 30 -9
13 -10 13 -10 0z"/>
<path d="M410 1469 c-19 -38 -40 -75 -48 -81 -7 -6 -18 -21 -23 -32 -6 -12 6
-4 26 17 42 44 52 44 29 -1 -30 -62 -144 -133 -209 -132 -18 1 -17 2 5 16 25
15 25 15 -9 8 -19 -3 -67 -6 -107 -6 -73 0 -91 -11 -37 -21 16 -3 48 -13 73
-22 25 -9 74 -20 110 -24 65 -6 65 -6 62 -36 -4 -37 -55 -92 -94 -100 -47 -11
-117 30 -146 85 l-24 45 6 -35 c20 -114 20 -120 -3 -120 -20 0 -21 -4 -21
-102 l1 -103 105 -110 c58 -60 117 -128 131 -150 14 -22 29 -42 33 -45 25 -19
111 -146 134 -200 16 -36 44 -95 62 -131 l32 -65 89 2 c87 3 88 3 86 28 -2 33
-64 190 -114 290 -22 43 -38 80 -35 83 2 2 36 -37 75 -89 39 -51 84 -109 101
-129 16 -20 52 -67 81 -105 29 -38 53 -70 55 -72 4 -6 104 -9 104 -3 -1 3 -13
22 -28 42 -15 20 -64 85 -109 145 -46 60 -90 123 -98 141 -8 17 -19 33 -24 35
-5 2 -32 34 -60 71 -45 59 -51 70 -39 85 7 9 -7 2 -32 -14 -45 -30 -120 -64
-142 -64 -7 0 2 15 18 33 17 17 40 48 52 67 23 39 77 195 88 253 3 20 10 37
14 37 9 0 38 -70 50 -122 7 -27 8 -21 9 33 1 63 -3 75 -63 195 -37 76 -68 154
-75 189 -29 157 -41 230 -41 256 0 46 -13 34 -50 -42z m0 -220 c0 -48 -22
-109 -38 -109 -5 0 -1 38 7 84 17 92 31 104 31 25z m72 -142 c2 -59 0 -107 -3
-107 -4 0 -15 29 -24 64 -16 57 -16 74 -5 148 22 145 27 131 32 -105z m-18
-147 c-5 -4 -29 -10 -54 -12 l-45 -3 -3 68 c-3 60 0 71 25 103 l28 37 29 -92
c18 -55 26 -95 20 -101z m-359 96 c42 -28 119 -29 190 0 35 14 -3 -25 -46 -47
-60 -30 -93 -25 -142 21 -41 38 -42 54 -2 26z m243 -56 l2 -60 -43 6 c-23 3
-57 10 -75 16 l-32 10 47 25 c27 13 57 33 68 44 11 10 22 19 25 19 3 0 7 -27
8 -60z m202 -60 c0 -57 -12 -64 -35 -19 -15 29 -15 32 1 50 27 30 34 23 34
-31z m-313 -216 c-6 -6 -47 45 -47 58 0 5 12 -5 26 -22 15 -17 24 -33 21 -36z
m263 16 c0 -5 -4 -10 -9 -10 -6 0 -13 5 -16 10 -3 6 1 10 9 10 9 0 16 -4 16
-10z"/>
<path d="M38 1497 c-3 -19 -2 -25 4 -19 6 6 8 18 6 28 -3 14 -5 12 -10 -9z"/>
<path d="M300 1407 c0 -43 4 -66 10 -62 13 8 13 95 0 115 -7 10 -10 -5 -10
-53z"/>
<path d="M800 1451 c0 -5 5 -13 10 -16 6 -3 10 -2 10 4 0 5 -4 13 -10 16 -5 3
-10 2 -10 -4z"/>
<path d="M30 1346 c0 -8 4 -17 9 -20 5 -4 7 3 4 14 -6 23 -13 26 -13 6z"/>
<path d="M270 1300 c-13 -8 -13 -10 2 -10 9 0 20 5 23 10 8 13 -5 13 -25 0z"/>
<path d="M1721 1284 c-19 -24 -28 -54 -16 -54 2 0 14 18 25 40 24 46 20 51 -9
14z"/>
<path d="M940 1270 c8 -5 22 -10 30 -10 13 0 13 1 0 10 -8 5 -22 10 -30 10
-13 0 -13 -1 0 -10z"/>
<path d="M1705 1010 c-18 -8 -18 -9 5 -8 14 0 36 4 50 8 24 8 24 8 -5 8 -16 0
-39 -3 -50 -8z"/>
<path d="M1393 983 c9 -9 20 -13 24 -9 4 4 1 11 -7 16 -25 16 -35 11 -17 -7z"/>
<path d="M1440 981 c0 -4 11 -6 25 -3 14 2 25 6 25 8 0 2 -11 4 -25 4 -14 0
-25 -4 -25 -9z"/>
<path d="M606 681 c-5 -8 -4 -16 2 -20 6 -3 22 -31 36 -61 30 -64 23 -28 -8
45 -16 34 -25 45 -30 36z"/>
<path d="M2211 633 c-1 -6 -4 -20 -7 -30 -5 -17 -5 -17 6 0 6 10 9 23 6 30 -3
9 -5 9 -5 0z"/>
<path d="M40 564 c0 -14 83 -94 98 -94 7 0 12 -6 12 -13 0 -7 17 -29 37 -48
21 -18 29 -24 19 -11 -12 13 -14 22 -7 22 15 0 113 -91 106 -98 -7 -7 35 -52
48 -52 5 0 4 7 -3 15 -7 8 -9 15 -4 15 13 0 -85 96 -161 158 -38 31 -71 60
-73 65 -2 4 -9 7 -15 7 -6 0 -21 10 -34 22 -13 12 -23 17 -23 12z"/>
</g>
</svg>
